Coordinates
version=1
nRows=14
nColumns=33
inDegrees=yes

Units are S.I. units (second, meters, Newtons, ...)
Angles are in degrees.

endheader
time	ground_thorax_rot_x	ground_thorax_rot_y	ground_thorax_rot_z	ground_thorax_tx	ground_thorax_ty	ground_thorax_tz	clav_prot_r	clav_elev_r	scapula_abduction_r	scapula_elevation_r	scapula_upward_rot_r	scapula_winging_r	shoulder_elv_r	plane_of_elev_r	axial_rot_r	elbow_flexion_r	pro_sup_r	wrist_flex_r	wrist_dev_r	clav_prot_l	clav_elev_l	scapula_abduction_l	scapula_elevation_l	scapula_upward_rot_l	scapula_winging_l	shoulder_elv_l	plane_of_elev_l	axial_rot_l	elbow_flexion_l	pro_sup_l	wrist_flex_l	wrist_dev_l
      2.82000000	     38.31304954	     -0.21522513	      4.70933614	    -35.96017481	    800.50641345	      5.27140365	     13.02471636	     38.76673854	     45.00000000	     37.32261164	    -14.19964070	  -3683.92715559	  -2099.19235813	     30.01474285	     62.13377932	    369.84109652	     14.75611517	     17.06754456	     11.79323253	      6.09931633	    -45.00000000	    -45.00000000	     45.00000000	    -18.06272962	   2967.43939614	  -2812.42222028	     19.91750419	    -39.92919928	   2166.66331998	     20.47829566	     14.39724738	    -18.90593237
      2.83000000	     38.07462832	      0.05996944	      5.36952861	    -34.42570140	    799.20200833	      5.70921129	     12.94695946	     38.34374671	     45.00000000	     36.96189679	    -14.82496489	  -3684.01645441	  -2099.26950313	     30.11262432	     62.99828870	    369.66634691	     13.37296206	     16.91911737	     12.08754363	      6.76199717	    -45.00000000	    -45.00000000	     45.00000000	    -18.84153620	   2967.54414452	  -2812.46943810	     20.03223613	    -41.19473764	   2166.40773408	     19.38105956	     14.14907955	    -18.79062283
      2.84000000	     37.86702193	     -0.10033272	      5.51273946	    -33.25331082	    798.12338127	      6.12019487	     12.96393872	     37.95305074	     45.00000000	     36.63045330	    -14.73533575	  -3683.96116419	  -2099.37596273	     29.99173950	     63.59513231	    369.44671612	     12.17897265	     16.75064856	     12.17143968	      6.61261980	    -45.00000000	    -45.00000000	     45.00000000	    -18.82119944	   2967.38793257	  -2812.36441172	     19.91638386	    -41.74196405	   2166.23948059	     18.64145545	     14.10072152	    -18.64324414
      2.85000000	     37.74457298	     -0.34976274	      5.54829624	    -32.47329199	    797.24671702	      6.49132307	     12.89489743	     37.75413000	     45.00000000	     36.45147127	    -14.54064078	  -3683.84302679	  -2099.44047470	     29.80084858	     64.20735693	    369.33043889	     11.05266775	     16.64282549	     12.24233531	      6.52388264	    -45.00000000	    -45.00000000	     45.00000000	    -18.65137061	   2967.18557531	  -2812.27368472	     19.75628279	    -42.23072273	   2166.06830989	     18.13269021	     14.06555623	    -18.52264460
      2.86000000	     37.51311077	     -0.43995828	      5.97347191	    -32.10987300	    796.54682167	      6.80983611	     12.81802210	     37.42959680	     45.00000000	     36.03000753	    -14.56785356	  -3683.67869021	  -2099.16515436	     29.45587087	     64.75896133	    369.42973619	     10.18363230	     16.64517837	     12.39332861	      6.41773771	    -45.00000000	    -45.00000000	     45.00000000	    -18.58306124	   2967.30443374	  -2812.12665742	     19.46831764	    -42.38697218	   2166.05054052	     17.78183611	     13.73094182	    -18.46039707
      2.87000000	     37.57538453	     -0.81736157	      5.71008657	    -32.17954246	    795.99670141	      7.06431678	     12.79603212	     37.65484841	     45.00000000	     36.15643453	    -14.43630349	  -3684.09435336	  -2099.73825330	     29.77969244	     64.97577679	    369.01980157	      9.32081924	     16.47426596	     12.19339030	      6.43579640	    -45.00000000	    -45.00000000	     45.00000000	    -18.49131678	   2967.26192342	  -2812.25590561	     19.79330657	    -42.80827663	   2165.92959580	     17.58889431	     13.81975587	    -18.41903793
      2.88000000	     37.55060527	     -1.05088966	      5.94990659	    -32.69406131	    795.56820992	      7.24522372	     12.75569839	     37.44605904	     45.00000000	     36.12538102	    -14.40411377	  -3683.74187387	  -2099.45125180	     29.33821954	     65.30037215	    369.08929996	      8.38037940	     16.48733159	     12.41500220	      6.26755317	    -45.00000000	    -45.00000000	     45.00000000	    -18.34292886	   2967.23463006	  -2812.17722571	     19.47640358	    -42.82263706	   2165.81973678	     17.35473032	     13.56134580	    -18.37755815
      2.89000000	     37.55764480	     -1.27795402	      6.04355148	    -33.65177168	    795.24460440	      7.34222280	     12.69552031	     37.65128096	     45.00000000	     36.10388402	    -14.53001808	  -3684.02797128	  -2099.60339853	     29.49014129	     65.45963067	    368.92397445	      7.51626990	     16.44901201	     12.38372604	      6.27444469	    -45.00000000	    -45.00000000	     45.00000000	    -18.28169441	   2967.42804261	  -2812.29172918	     19.61365398	    -42.85203936	   2165.63395979	     17.18565649	     13.49471255	    -18.36472714
      2.90000000	     37.50008347	     -1.49856940	      6.14847914	    -35.04316621	    795.00470913	      7.35299985	     12.72600660	     37.63413216	     45.00000000	     35.99847267	    -14.53880211	  -3684.02803860	  -2099.48238087	     29.28655977	     65.52498461	    368.76589382	      6.75435935	     16.40776769	     12.34673086	      6.19512122	    -45.00000000	    -45.00000000	     45.00000000	    -18.20537252	   2967.54499843	  -2812.20592582	     19.54910318	    -42.69280636	   2165.48850743	     17.00799975	     13.31730090	    -18.35706064
      2.91000000	     37.51234243	     -1.75117842	      6.22923982	    -36.85441411	    794.83706125	      7.27813198	     12.69255691	     37.85333759	     45.00000000	     36.10472991	    -14.78531501	  -3684.26968644	  -2099.66400159	     29.41428668	     65.63178143	    368.58604257	      6.10003064	     16.37743590	     12.33278162	      6.20037129	    -45.00000000	    -45.00000000	     45.00000000	    -18.12781981	   2967.86734665	  -2812.26572536	     19.64843034	    -42.48852993	   2165.33093083	     16.82652433	     13.32639940	    -18.38097830
      2.92000000	     37.44283972	     -1.86728085	      6.44916826	    -39.06307086	    794.73944886	      7.12306845	     12.74664167	     37.55444818	     45.00000000	     36.02951716	    -15.02256000	  -3684.31956728	  -2099.44808658	     29.17361459	     65.85651212	    368.58674716	      5.56357266	     16.38744496	     12.24594378	      6.17178942	    -45.00000000	    -45.00000000	     45.00000000	    -18.19499863	   2968.11407651	  -2812.10976985	     19.59024299	    -42.24917735	   2165.23280807	     16.60537013	     13.21046783	    -18.40998000
      2.93000000	     37.50068675	     -2.03108488	      6.54706143	    -41.64573493	    794.71605750	      6.89561233	     12.73118702	     37.87531132	     45.00000000	     36.23730910	    -15.44880918	  -3684.68006173	  -2099.61436904	     29.35590502	     66.14306800	    368.48375247	      5.18319107	     16.38585051	     12.14900863	      6.24686204	    -45.00000000	    -45.00000000	     45.00000000	    -18.20679582	   2968.49729498	  -2812.23276834	     19.71063341	    -42.01597413	   2165.06219996	     16.35407565	     13.26023702	    -18.43665148
      2.94000000	     37.45341414	     -2.11372456	      6.70960769	    -44.58198566	    794.78512683	      6.60972393	     12.84519745	     37.59669991	     45.00000000	     36.24468749	    -15.73358271	  -3684.70312187	  -2099.38693186	     28.99358076	     66.57459173	    368.54868430	      4.96718458	     16.40969038	     11.99984905	      6.24880563	    -45.00000000	    -45.00000000	     45.00000000	    -18.44648957	   2968.74055832	  -2812.07948062	     19.63324788	    -41.74250440	   2165.00482218	     16.03780863	     13.18241539	    -18.47785320
      2.95000000	     37.61442336	     -1.43695820	      7.85759449	    -47.84102619	    794.95624240	      6.27316065	     13.76025217	     38.39461598	     45.00000000	     37.04621011	    -18.19152850	  -3684.63720861	  -2099.41769237	     29.15718962	     66.71133772	    368.61980914	      4.69887619	     16.43724501	     11.64185990	      7.02621091	    -45.00000000	    -45.00000000	     45.00000000	    -20.35733627	   2968.94648106	  -2812.01801711	     19.52562637	    -41.42705918	   2165.06609265	     15.36322257	     13.16004911	    -18.43114469
